<mxfile host="Electron" modified="2023-09-08T00:26:24.211Z" agent="Mozilla/5.0 (Windows NT 10.0; Win64; x64) AppleWebKit/537.36 (KHTML, like Gecko) draw.io/21.6.8 Chrome/114.0.5735.289 Electron/25.5.0 Safari/537.36" etag="F95EReiQ0gIMpwY0ydGT" version="21.6.8" type="device">
  <diagram name="Página-1" id="cgPrpGFTtVktEYGxDmrL">
    <mxGraphModel dx="1000" dy="591" grid="1" gridSize="10" guides="1" tooltips="1" connect="1" arrows="1" fold="1" page="1" pageScale="1" pageWidth="1169" pageHeight="827" math="0" shadow="0">
      <root>
        <mxCell id="0" />
        <mxCell id="1" parent="0" />
        <mxCell id="fR0F-z1P9DWGV4KV3XoP-2" value="DIAGRAMA E - R CON NOTACIÓN UML&lt;br style=&quot;font-size: 21px;&quot;&gt;&lt;br style=&quot;font-size: 21px;&quot;&gt;EXAMNE PRIMER PARCIAL&lt;br style=&quot;font-size: 21px;&quot;&gt;&lt;br style=&quot;font-size: 21px;&quot;&gt;ANGEL DAVID ONESTO FRIAS&lt;br style=&quot;font-size: 21px;&quot;&gt;&lt;br style=&quot;font-size: 21px;&quot;&gt;80065" style="text;html=1;strokeColor=none;fillColor=none;align=center;verticalAlign=middle;whiteSpace=wrap;rounded=0;fontStyle=1;fontSize=21;" vertex="1" parent="1">
          <mxGeometry x="188" y="120" width="793" height="30" as="geometry" />
        </mxCell>
        <mxCell id="fR0F-z1P9DWGV4KV3XoP-3" value="SUCURSALES EDITORIAL" style="swimlane;childLayout=stackLayout;horizontal=1;startSize=50;horizontalStack=0;rounded=1;fontSize=14;fontStyle=0;strokeWidth=2;resizeParent=0;resizeLast=1;shadow=0;dashed=0;align=center;arcSize=4;whiteSpace=wrap;html=1;" vertex="1" parent="1">
          <mxGeometry x="324" y="256" width="160" height="120" as="geometry" />
        </mxCell>
        <mxCell id="fR0F-z1P9DWGV4KV3XoP-4" value="&lt;u style=&quot;font-weight: bold;&quot;&gt;idCodigoSucursal&lt;/u&gt;&lt;br&gt;domicilio&lt;br&gt;teléfono" style="align=left;strokeColor=none;fillColor=none;spacingLeft=4;fontSize=12;verticalAlign=top;resizable=0;rotatable=0;part=1;html=1;" vertex="1" parent="fR0F-z1P9DWGV4KV3XoP-3">
          <mxGeometry y="50" width="160" height="70" as="geometry" />
        </mxCell>
        <mxCell id="fR0F-z1P9DWGV4KV3XoP-5" value="EMPLEADO" style="swimlane;childLayout=stackLayout;horizontal=1;startSize=50;horizontalStack=0;rounded=1;fontSize=14;fontStyle=0;strokeWidth=2;resizeParent=0;resizeLast=1;shadow=0;dashed=0;align=center;arcSize=4;whiteSpace=wrap;html=1;" vertex="1" parent="1">
          <mxGeometry x="779" y="248" width="160" height="120" as="geometry" />
        </mxCell>
        <mxCell id="fR0F-z1P9DWGV4KV3XoP-6" value="&lt;b&gt;&lt;u&gt;idEmpleado&lt;br&gt;&lt;/u&gt;&lt;/b&gt;RFC&lt;br&gt;teléfono" style="align=left;strokeColor=none;fillColor=none;spacingLeft=4;fontSize=12;verticalAlign=top;resizable=0;rotatable=0;part=1;html=1;" vertex="1" parent="fR0F-z1P9DWGV4KV3XoP-5">
          <mxGeometry y="50" width="160" height="70" as="geometry" />
        </mxCell>
        <mxCell id="fR0F-z1P9DWGV4KV3XoP-29" style="edgeStyle=orthogonalEdgeStyle;rounded=0;orthogonalLoop=1;jettySize=auto;html=1;entryX=0.5;entryY=1;entryDx=0;entryDy=0;" edge="1" parent="1" source="fR0F-z1P9DWGV4KV3XoP-7" target="fR0F-z1P9DWGV4KV3XoP-4">
          <mxGeometry relative="1" as="geometry" />
        </mxCell>
        <mxCell id="fR0F-z1P9DWGV4KV3XoP-7" value="REVISTAS" style="swimlane;childLayout=stackLayout;horizontal=1;startSize=50;horizontalStack=0;rounded=1;fontSize=14;fontStyle=0;strokeWidth=2;resizeParent=0;resizeLast=1;shadow=0;dashed=0;align=center;arcSize=4;whiteSpace=wrap;html=1;" vertex="1" parent="1">
          <mxGeometry x="324" y="656" width="160" height="120" as="geometry" />
        </mxCell>
        <mxCell id="fR0F-z1P9DWGV4KV3XoP-8" value="&lt;b&gt;&lt;u&gt;idNumRegistro&lt;br&gt;&lt;/u&gt;&lt;/b&gt;titulo&lt;br&gt;periocidad&lt;br&gt;tipo" style="align=left;strokeColor=none;fillColor=none;spacingLeft=4;fontSize=12;verticalAlign=top;resizable=0;rotatable=0;part=1;html=1;" vertex="1" parent="fR0F-z1P9DWGV4KV3XoP-7">
          <mxGeometry y="50" width="160" height="70" as="geometry" />
        </mxCell>
        <mxCell id="fR0F-z1P9DWGV4KV3XoP-30" value="&lt;font style=&quot;font-size: 25px;&quot;&gt;*&lt;/font&gt;" style="text;html=1;strokeColor=none;fillColor=none;align=center;verticalAlign=middle;whiteSpace=wrap;rounded=0;" vertex="1" parent="1">
          <mxGeometry x="356" y="633" width="60" height="30" as="geometry" />
        </mxCell>
        <mxCell id="fR0F-z1P9DWGV4KV3XoP-31" value="&lt;font style=&quot;font-size: 25px;&quot;&gt;*&lt;/font&gt;" style="text;html=1;strokeColor=none;fillColor=none;align=center;verticalAlign=middle;whiteSpace=wrap;rounded=0;" vertex="1" parent="1">
          <mxGeometry x="356" y="384" width="60" height="30" as="geometry" />
        </mxCell>
        <mxCell id="fR0F-z1P9DWGV4KV3XoP-32" value="" style="swimlane;childLayout=stackLayout;horizontal=1;startSize=50;horizontalStack=0;rounded=1;fontSize=14;fontStyle=0;strokeWidth=2;resizeParent=0;resizeLast=1;shadow=0;dashed=0;align=center;arcSize=4;whiteSpace=wrap;html=1;" vertex="1" parent="1">
          <mxGeometry x="132" y="443" width="160" height="120" as="geometry" />
        </mxCell>
        <mxCell id="fR0F-z1P9DWGV4KV3XoP-33" value="Fecha&lt;br&gt;NumeroDePaginas&lt;br&gt;Ejemplares Vendidos" style="align=left;strokeColor=none;fillColor=none;spacingLeft=4;fontSize=12;verticalAlign=top;resizable=0;rotatable=0;part=1;html=1;" vertex="1" parent="fR0F-z1P9DWGV4KV3XoP-32">
          <mxGeometry y="50" width="160" height="70" as="geometry" />
        </mxCell>
        <mxCell id="fR0F-z1P9DWGV4KV3XoP-34" value="" style="endArrow=classic;html=1;rounded=0;entryX=1.015;entryY=0.4;entryDx=0;entryDy=0;entryPerimeter=0;" edge="1" parent="1" target="fR0F-z1P9DWGV4KV3XoP-33">
          <mxGeometry width="50" height="50" relative="1" as="geometry">
            <mxPoint x="432" y="521" as="sourcePoint" />
            <mxPoint x="552" y="509" as="targetPoint" />
          </mxGeometry>
        </mxCell>
        <mxCell id="fR0F-z1P9DWGV4KV3XoP-35" style="edgeStyle=orthogonalEdgeStyle;rounded=0;orthogonalLoop=1;jettySize=auto;html=1;entryX=1.006;entryY=0.374;entryDx=0;entryDy=0;entryPerimeter=0;" edge="1" parent="1" source="fR0F-z1P9DWGV4KV3XoP-6" target="fR0F-z1P9DWGV4KV3XoP-4">
          <mxGeometry relative="1" as="geometry" />
        </mxCell>
        <mxCell id="fR0F-z1P9DWGV4KV3XoP-36" value="Trabaja" style="shape=rhombus;perimeter=rhombusPerimeter;whiteSpace=wrap;html=1;align=center;" vertex="1" parent="1">
          <mxGeometry x="583" y="301" width="120" height="60" as="geometry" />
        </mxCell>
        <mxCell id="fR0F-z1P9DWGV4KV3XoP-37" value="Publican" style="shape=rhombus;perimeter=rhombusPerimeter;whiteSpace=wrap;html=1;align=center;" vertex="1" parent="1">
          <mxGeometry x="344" y="491" width="120" height="60" as="geometry" />
        </mxCell>
        <mxCell id="fR0F-z1P9DWGV4KV3XoP-38" value="&lt;font style=&quot;font-size: 25px;&quot;&gt;1&lt;/font&gt;" style="text;html=1;strokeColor=none;fillColor=none;align=center;verticalAlign=middle;whiteSpace=wrap;rounded=0;" vertex="1" parent="1">
          <mxGeometry x="473" y="338" width="60" height="30" as="geometry" />
        </mxCell>
        <mxCell id="fR0F-z1P9DWGV4KV3XoP-39" value="&lt;font style=&quot;font-size: 25px;&quot;&gt;*&lt;/font&gt;" style="text;html=1;strokeColor=none;fillColor=none;align=center;verticalAlign=middle;whiteSpace=wrap;rounded=0;" vertex="1" parent="1">
          <mxGeometry x="733" y="341" width="60" height="30" as="geometry" />
        </mxCell>
        <mxCell id="fR0F-z1P9DWGV4KV3XoP-43" style="edgeStyle=orthogonalEdgeStyle;rounded=0;orthogonalLoop=1;jettySize=auto;html=1;entryX=1.021;entryY=0.123;entryDx=0;entryDy=0;entryPerimeter=0;" edge="1" parent="1" source="fR0F-z1P9DWGV4KV3XoP-44" target="fR0F-z1P9DWGV4KV3XoP-8">
          <mxGeometry relative="1" as="geometry" />
        </mxCell>
        <mxCell id="fR0F-z1P9DWGV4KV3XoP-46" style="edgeStyle=orthogonalEdgeStyle;rounded=0;orthogonalLoop=1;jettySize=auto;html=1;" edge="1" parent="1" source="fR0F-z1P9DWGV4KV3XoP-41">
          <mxGeometry relative="1" as="geometry">
            <mxPoint x="703" y="714" as="targetPoint" />
          </mxGeometry>
        </mxCell>
        <mxCell id="fR0F-z1P9DWGV4KV3XoP-41" value="EMPLEADO PERIODISTA" style="swimlane;childLayout=stackLayout;horizontal=1;startSize=50;horizontalStack=0;rounded=1;fontSize=14;fontStyle=0;strokeWidth=2;resizeParent=0;resizeLast=1;shadow=0;dashed=0;align=center;arcSize=4;whiteSpace=wrap;html=1;" vertex="1" parent="1">
          <mxGeometry x="883" y="654" width="160" height="120" as="geometry" />
        </mxCell>
        <mxCell id="fR0F-z1P9DWGV4KV3XoP-42" value="&lt;b&gt;&lt;u&gt;idEmpleadoPeriodista&lt;br&gt;&lt;/u&gt;&lt;/b&gt;RFC&lt;br&gt;teléfono&lt;br&gt;Especialidad" style="align=left;strokeColor=none;fillColor=none;spacingLeft=4;fontSize=12;verticalAlign=top;resizable=0;rotatable=0;part=1;html=1;" vertex="1" parent="fR0F-z1P9DWGV4KV3XoP-41">
          <mxGeometry y="50" width="160" height="70" as="geometry" />
        </mxCell>
        <mxCell id="fR0F-z1P9DWGV4KV3XoP-44" value="Escribe" style="shape=rhombus;perimeter=rhombusPerimeter;whiteSpace=wrap;html=1;align=center;" vertex="1" parent="1">
          <mxGeometry x="613" y="684" width="120" height="60" as="geometry" />
        </mxCell>
        <mxCell id="fR0F-z1P9DWGV4KV3XoP-47" value="&lt;font style=&quot;font-size: 25px;&quot;&gt;1&lt;/font&gt;" style="text;html=1;strokeColor=none;fillColor=none;align=center;verticalAlign=middle;whiteSpace=wrap;rounded=0;" vertex="1" parent="1">
          <mxGeometry x="836" y="721" width="60" height="30" as="geometry" />
        </mxCell>
        <mxCell id="fR0F-z1P9DWGV4KV3XoP-49" value="&lt;font style=&quot;font-size: 25px;&quot;&gt;*&lt;/font&gt;" style="text;html=1;strokeColor=none;fillColor=none;align=center;verticalAlign=middle;whiteSpace=wrap;rounded=0;" vertex="1" parent="1">
          <mxGeometry x="468" y="731" width="60" height="30" as="geometry" />
        </mxCell>
        <mxCell id="fR0F-z1P9DWGV4KV3XoP-50" value="&lt;font style=&quot;font-size: 25px;&quot;&gt;o&lt;/font&gt;" style="text;html=1;strokeColor=none;fillColor=none;align=center;verticalAlign=middle;whiteSpace=wrap;rounded=0;" vertex="1" parent="1">
          <mxGeometry x="374" y="388" width="60" height="30" as="geometry" />
        </mxCell>
        <mxCell id="fR0F-z1P9DWGV4KV3XoP-51" value="|" style="text;html=1;strokeColor=none;fillColor=none;align=center;verticalAlign=middle;whiteSpace=wrap;rounded=0;rotation=90;fontSize=17;" vertex="1" parent="1">
          <mxGeometry x="376" y="611" width="60" height="30" as="geometry" />
        </mxCell>
        <mxCell id="fR0F-z1P9DWGV4KV3XoP-54" value="|" style="text;html=1;strokeColor=none;fillColor=none;align=center;verticalAlign=middle;whiteSpace=wrap;rounded=0;fontSize=18;" vertex="1" parent="1">
          <mxGeometry x="719" y="318" width="60" height="30" as="geometry" />
        </mxCell>
        <mxCell id="fR0F-z1P9DWGV4KV3XoP-55" value="|" style="text;html=1;strokeColor=none;fillColor=none;align=center;verticalAlign=middle;whiteSpace=wrap;rounded=0;fontSize=18;" vertex="1" parent="1">
          <mxGeometry x="480" y="317" width="60" height="30" as="geometry" />
        </mxCell>
        <mxCell id="fR0F-z1P9DWGV4KV3XoP-56" value="|" style="text;html=1;strokeColor=none;fillColor=none;align=center;verticalAlign=middle;whiteSpace=wrap;rounded=0;fontSize=18;" vertex="1" parent="1">
          <mxGeometry x="819" y="698" width="60" height="30" as="geometry" />
        </mxCell>
        <mxCell id="fR0F-z1P9DWGV4KV3XoP-57" value="|" style="text;html=1;strokeColor=none;fillColor=none;align=center;verticalAlign=middle;whiteSpace=wrap;rounded=0;fontSize=18;" vertex="1" parent="1">
          <mxGeometry x="488" y="699" width="60" height="30" as="geometry" />
        </mxCell>
        <mxCell id="fR0F-z1P9DWGV4KV3XoP-60" value="" style="endArrow=none;html=1;rounded=0;entryX=1;entryY=0.25;entryDx=0;entryDy=0;exitX=0;exitY=0.25;exitDx=0;exitDy=0;fontSize=19;strokeWidth=6;fillColor=#f8cecc;strokeColor=#b85450;" edge="1" parent="1">
          <mxGeometry width="50" height="50" relative="1" as="geometry">
            <mxPoint x="188" y="132.5" as="sourcePoint" />
            <mxPoint x="981" y="132.5" as="targetPoint" />
          </mxGeometry>
        </mxCell>
      </root>
    </mxGraphModel>
  </diagram>
</mxfile>
